<svg width="171" height="171" viewBox="0 0 171 171" fill="none" xmlns="http://www.w3.org/2000/svg">
<mask id="mask0_337_684" style="mask-type:luminance" maskUnits="userSpaceOnUse" x="0" y="0" width="171" height="171">
<path d="M170.667 0H0V170.667H170.667V0Z" fill="white"/>
</mask>
<g mask="url(#mask0_337_684)">
<g opacity="0.2">
<path d="M111.295 87.2742C111.295 102.25 99.154 114.391 84.1776 114.391C69.2013 114.391 57.0605 102.25 57.0605 87.2742C57.0605 72.2979 69.2013 60.1572 84.1776 60.1572C99.154 60.1572 111.295 72.2979 111.295 87.2742Z" fill="#D81A61"/>
</g>
<path d="M114.991 87.2742C114.991 104.293 101.195 118.089 84.1762 118.089C67.1577 118.089 53.3613 104.293 53.3613 87.2742C53.3613 70.2556 67.1577 56.4595 84.1762 56.4595C101.195 56.4595 114.991 70.2556 114.991 87.2742Z" fill="#D81A61"/>
<path d="M70.5762 87.3265L79.6099 96.3603L97.782 78.1882" stroke="white" stroke-width="4.44444" stroke-linecap="round" stroke-linejoin="round"/>
</g>
</svg>
