<svg width="23" height="23" viewBox="0 0 23 23" fill="none" xmlns="http://www.w3.org/2000/svg">
<path d="M21.9287 9.35559L12.2359 0.438231C11.9208 0.148334 11.5059 -0.00855399 11.0778 0.000360077C10.6497 0.00927414 10.2417 0.1833 9.9389 0.486063L1.02438 9.40064L0.566895 9.85807V23H9.15719V14.8002H13.8428V23H22.4331V9.81966L21.9287 9.35559ZM11.1114 1.5619C11.1251 1.5619 11.1167 1.56488 11.1107 1.57069C11.1046 1.56488 11.0976 1.5619 11.1114 1.5619ZM20.8712 21.4381H15.4047V14.8002C15.4047 14.3859 15.2401 13.9887 14.9472 13.6958C14.6543 13.4029 14.257 13.2383 13.8428 13.2383H9.15719C8.74295 13.2383 8.34569 13.4029 8.05278 13.6958C7.75987 13.9887 7.59532 14.3859 7.59532 14.8002V21.4381H2.12877V10.505L11.1114 1.59045C11.112 1.58987 11.1121 1.58933 11.1126 1.58874L20.8712 10.505V21.4381Z" fill="#1F2937"/>
</svg>
