<?xml version="1.0" standalone="no"?>
<!DOCTYPE svg PUBLIC "-//W3C//DTD SVG 20010904//EN"
 "http://www.w3.org/TR/2001/REC-SVG-20010904/DTD/svg10.dtd">
<svg version="1.0" xmlns="http://www.w3.org/2000/svg"
 width="500.000000pt" height="500.000000pt" viewBox="0 0 500.000000 500.000000"
 preserveAspectRatio="xMidYMid meet">

<g transform="translate(0.000000,500.000000) scale(0.100000,-0.100000)"
fill="#000000" stroke="none">
<path d="M2465 4498 c-175 -16 -404 -128 -549 -267 -123 -118 -218 -280 -261
-443 l-21 -79 -149 -3 c-97 -2 -169 -9 -205 -19 -202 -57 -351 -154 -475 -311
-198 -246 -257 -542 -164 -821 64 -193 187 -351 367 -470 39 -26 72 -51 72
-54 0 -4 -16 -45 -35 -92 -115 -283 -70 -628 114 -871 194 -255 524 -381 851
-323 46 8 109 22 140 31 70 20 230 103 294 152 27 20 54 41 61 46 8 6 37 -17
91 -71 87 -88 173 -138 294 -170 100 -27 309 -24 420 5 178 48 382 170 500
299 230 252 310 582 203 837 -14 33 -36 76 -49 95 -13 20 -24 38 -24 42 0 3
35 27 78 51 202 118 330 279 393 493 30 103 37 286 15 395 -60 294 -245 535
-511 666 -133 65 -224 87 -380 89 l-130 2 -23 89 c-41 162 -130 321 -251 448
-175 182 -423 277 -666 254z m208 -298 c41 -6 94 -23 135 -44 247 -124 374
-334 358 -591 -9 -151 21 -176 157 -130 116 39 247 40 362 1 181 -62 316 -184
406 -370 54 -111 73 -204 67 -335 -8 -168 -63 -296 -173 -404 -69 -68 -168
-121 -275 -146 -49 -11 -91 -27 -103 -39 l-20 -21 41 -63 c102 -156 144 -292
143 -458 0 -126 -17 -195 -73 -309 -114 -234 -382 -365 -657 -322 -186 29
-378 149 -476 297 -60 90 -73 89 -128 -6 -72 -124 -204 -227 -353 -276 -79
-26 -102 -29 -209 -28 -101 0 -132 5 -200 27 -178 59 -306 170 -389 337 -51
102 -70 181 -70 295 1 155 45 284 143 414 42 56 52 99 29 119 -7 5 -42 17 -78
26 -221 55 -379 213 -437 436 -36 140 -13 351 53 482 161 322 485 460 791 338
139 -56 150 -46 155 140 3 114 8 146 30 207 34 94 104 199 181 268 73 67 217
141 297 154 76 12 212 12 293 1z"/>
<path d="M1730 2883 c-8 -3 -27 -17 -42 -31 -63 -58 -21 -137 88 -167 32 -9
102 -30 154 -45 52 -16 131 -39 175 -51 169 -45 320 -90 327 -97 4 -4 3 -23
-2 -42 -5 -19 -32 -125 -59 -235 -27 -110 -72 -281 -100 -379 -46 -164 -49
-181 -37 -211 26 -62 117 -71 169 -17 22 23 37 68 82 242 31 118 85 325 121
460 37 135 67 260 67 279 1 25 -6 40 -27 57 -15 13 -33 24 -40 24 -7 0 -114
27 -237 59 -246 65 -560 145 -599 154 -14 3 -32 3 -40 0z"/>
</g>
</svg>
