<?xml version="1.0" standalone="no"?>
<!DOCTYPE svg PUBLIC "-//W3C//DTD SVG 20010904//EN"
 "http://www.w3.org/TR/2001/REC-SVG-20010904/DTD/svg10.dtd">
<svg version="1.0" xmlns="http://www.w3.org/2000/svg"
 width="800.000000pt" height="800.000000pt" viewBox="0 0 800.000000 800.000000"
 preserveAspectRatio="xMidYMid meet">

<g transform="translate(0.000000,800.000000) scale(0.100000,-0.100000)"
fill="#000000" stroke="none">
<path d="M4006 7259 c-193 -25 -462 -160 -627 -316 -156 -148 -285 -371 -329
-573 l-12 -55 -167 -1 c-134 -1 -181 -5 -241 -22 -208 -56 -367 -147 -511
-292 -430 -433 -434 -1077 -9 -1497 41 -40 116 -101 167 -135 62 -42 92 -68
89 -78 -3 -8 -20 -55 -40 -105 -53 -138 -69 -229 -69 -390 0 -351 144 -652
407 -847 174 -129 366 -196 592 -205 284 -12 551 76 792 260 l54 41 26 -35
c100 -133 258 -230 449 -275 143 -34 374 -19 544 37 321 105 620 375 750 679
62 145 74 206 73 375 0 135 -3 158 -27 230 -14 44 -46 114 -70 155 l-45 75 82
43 c250 134 422 352 491 625 133 527 -168 1089 -692 1291 -136 53 -228 69
-385 69 l-137 0 -11 56 c-38 196 -165 434 -313 584 -167 170 -355 268 -584
302 -108 16 -144 17 -247 4z m348 -384 c125 -43 293 -162 369 -260 53 -70 111
-196 131 -286 13 -55 17 -109 14 -201 -3 -112 -1 -128 16 -147 32 -36 79 -37
175 -5 78 26 98 29 221 29 122 0 143 -3 214 -28 126 -44 211 -99 311 -201 218
-222 302 -526 224 -808 -73 -264 -259 -431 -541 -488 -65 -13 -108 -42 -108
-72 0 -11 20 -51 44 -87 201 -306 226 -664 65 -939 -47 -79 -190 -220 -264
-259 -212 -112 -461 -123 -682 -32 -149 63 -283 161 -354 261 -24 34 -58 77
-76 96 -41 43 -57 35 -111 -55 -106 -178 -269 -298 -481 -355 -116 -31 -278
-28 -396 7 -170 50 -314 145 -408 268 -118 156 -167 299 -167 494 0 185 47
323 165 482 55 74 63 99 45 145 -7 19 -19 27 -47 31 -159 26 -271 83 -384 195
-74 73 -93 99 -132 180 -62 131 -80 209 -80 350 1 246 89 457 259 621 151 145
305 210 498 212 99 0 181 -16 265 -54 70 -32 135 -38 167 -15 17 13 20 31 25
178 5 140 9 174 32 243 82 247 306 454 554 509 93 21 366 15 437 -9z"/>
<path d="M3123 5310 c-57 -34 -76 -95 -49 -149 29 -56 49 -63 606 -222 118
-33 233 -66 255 -71 22 -6 44 -14 49 -18 14 -13 -56 -307 -176 -735 -77 -276
-79 -296 -26 -340 28 -24 39 -27 90 -23 77 6 111 37 138 127 54 182 280 1062
280 1094 0 70 -19 80 -275 146 -126 32 -362 93 -524 135 -162 42 -304 76 -315
76 -12 0 -35 -9 -53 -20z"/>
</g>
</svg>
