<svg width="176" height="34" viewBox="0 0 176 34" fill="none" xmlns="http://www.w3.org/2000/svg">
<path d="M0.08 26.884H24.164V5.896H2.42V1.72H29.06V26.884H32.12V31.024H0.08V26.884ZM52.971 0.856H57.579V7.66H60.099V0.675998H64.707V24.22H60.099V12.052H57.579V23.86H52.971V0.856ZM37.707 21.52H42.603V28.648H65.427V32.68H37.707V21.52ZM43.467 1.036H51.531V4.924H48.039V14.608H51.891V18.496H43.467V1.036ZM34.647 1.036H42.747V4.924H39.219V14.608H42.819V18.496H34.647V1.036ZM77.8456 26.884H101.93V5.896H80.1856V1.72H106.826V26.884H109.886V31.024H77.8456V26.884ZM112.773 7.732H122.493V4.852H112.773V1.036H127.173V11.44H117.453V14.644H128.397V18.46H112.773V7.732ZM114.753 28.936C115.617 28.768 116.385 28.456 117.057 28C117.729 27.568 118.293 27.04 118.749 26.416C119.205 25.792 119.553 25.108 119.793 24.364C120.033 23.62 120.153 22.852 120.153 22.06V20.62H125.193V22.06C125.193 22.852 125.289 23.62 125.481 24.364C125.673 25.084 125.937 25.756 126.273 26.38C126.633 26.98 127.053 27.508 127.533 27.964C128.013 28.42 128.553 28.744 129.153 28.936C129.729 28.744 130.257 28.42 130.737 27.964C131.241 27.508 131.661 26.98 131.997 26.38C132.357 25.756 132.633 25.084 132.825 24.364C133.017 23.62 133.113 22.852 133.113 22.06V20.62H138.153V22.06C138.153 22.852 138.273 23.62 138.513 24.364C138.753 25.108 139.101 25.792 139.557 26.416C140.013 27.04 140.577 27.568 141.249 28C141.921 28.456 142.689 28.768 143.553 28.936V33.04C141.945 32.872 140.433 32.356 139.017 31.492C137.625 30.628 136.545 29.572 135.777 28.324C135.081 29.428 134.145 30.4 132.969 31.24C131.793 32.104 130.521 32.704 129.153 33.04C127.737 32.704 126.453 32.104 125.301 31.24C124.149 30.4 123.225 29.428 122.529 28.324C121.761 29.572 120.669 30.628 119.253 31.492C117.861 32.356 116.361 32.872 114.753 33.04V28.936ZM130.197 0.856H134.805V7.444H137.865V0.675998H142.473V19.54H137.865V11.836H134.805V19.54H130.197V0.856ZM146.8 26.488C147.976 26.128 149.044 25.54 150.004 24.724C150.988 23.908 151.816 22.924 152.488 21.772C153.16 20.596 153.676 19.264 154.036 17.776C154.42 16.264 154.612 14.644 154.612 12.916V5.68H147.16V1.576H166.744V5.68H159.688V12.916C159.688 14.476 159.844 15.964 160.156 17.38C160.492 18.772 160.972 20.056 161.596 21.232C162.244 22.408 163.024 23.44 163.936 24.328C164.848 25.192 165.904 25.876 167.104 26.38V30.808C166.144 30.52 165.172 30.1 164.188 29.548C163.228 28.996 162.304 28.348 161.416 27.604C160.528 26.86 159.724 26.056 159.004 25.192C158.284 24.328 157.696 23.428 157.24 22.492C156.136 24.676 154.66 26.488 152.812 27.928C150.988 29.344 148.984 30.34 146.8 30.916V26.488ZM171.064 0.675998H175.96V32.824H171.064V0.675998Z" fill="#D91B62"/>
</svg>
