<svg width="25" height="25" viewBox="0 0 25 25" fill="none" xmlns="http://www.w3.org/2000/svg">
<path d="M17.1666 9.5C17.1666 6.73913 14.9275 4.5 12.1666 4.5C9.40576 4.5 7.16663 6.73913 7.16663 9.5C7.16663 12.2609 9.40576 14.5 12.1666 14.5C14.9275 14.5 17.1666 12.2609 17.1666 9.5ZM8.47097 9.5C8.47097 7.45652 10.1231 5.80435 12.1666 5.80435C14.2101 5.80435 15.8623 7.45652 15.8623 9.5C15.8623 11.5435 14.2101 13.1957 12.1666 13.1957C10.1231 13.1957 8.47097 11.5435 8.47097 9.5Z" fill="#4B5563" stroke="#4B5563"/>
<path d="M3.52107 21.9275C3.63335 21.9819 3.74562 22 3.8579 22C4.08245 22 4.32945 21.9094 4.44173 21.7283C6.01358 19.4819 8.97764 18.087 12.1663 18.087C15.3549 18.087 18.3189 19.4819 19.9132 21.7283C20.0929 21.9819 20.5195 22.0725 20.8339 21.9275C21.1483 21.7826 21.2605 21.4384 21.0809 21.1848C19.262 18.6123 15.8489 17 12.1663 17C8.48363 17 5.07047 18.6123 3.25161 21.1848C3.07197 21.4384 3.18425 21.7826 3.52107 21.9275V21.9275Z" fill="#4B5563" stroke="#4B5563"/>
</svg>
